# xmcd CD database file generated by Grip 3.0.1
# 
# Track frame offsets:
#       150
#       19812
#       39610
#       53400
#       69337
#       90892
#       123565
#       140465
#       154780
#       176050
#       191767
#       205662
# 
# Disc length: 2928 seconds
# 
# Revision: 1
# Processed by: cddbd v1.4PL0 Copyright (c) Steve Scherf et al.
# Submitted via: Grip 3.0.1
# 
DISCID=9b0b6e0c
DTITLE=Susan Tedeschi - Wait For Me (Limited Edition)
DYEAR=2002
DGENRE=Blues
TTITLE0=Alone
TTITLE1=Gonna Move
TTITLE2=Wrapped In The Arms
TTITLE3='Til I Found You
TTITLE4=Wait For Me
TTITLE5=Feeling Music Brings
TTITLE6=In The Garden
TTITLE7=Hampmotized
TTITLE8=Don't Think Twice
TTITLE9=I Fell In Love
TTITLE10=Blues On A Holiday
TTITLE11=Rock And Roll
EXTD=
EXTT0=
EXTT1=
EXTT2=
EXTT3=
EXTT4=
EXTT5=
EXTT6=
EXTT7=
EXTT8=
EXTT9=
EXTT10=
EXTT11=
PLAYORDER=
